/* XPM */
static char * tabbed_xpm[] = {
"32 18 2 1",
" 	c white",
".	c None",
"                                ",
"                                ",
"  ..............  ............  ",
"  ..............  ............  ",
"                                ",
"                                ",
"  ............................  ",
"  ............................  ",
"  ............................  ",
"  ............................  ",
"  ............................  ",
"  ............................  ",
"  ............................  ",
"  ............................  ",
"  ............................  ",
"  ............................  ",
"                                ",
"                                "};
