/* XPM */
static char * tabbed_xpm[] = {
"28 16 2 1",
" 	c white",
".	c None",
"                            ",
"                            ",
"  ...........  ...........  ",
"  ...........  ...........  ",
"                            ",
"                            ",
"  ........................  ",
"  ........................  ",
"  ........................  ",
"  ........................  ",
"  ........................  ",
"  ........................  ",
"  ........................  ",
"  ........................  ",
"                            ",
"                            "};
