/* XPM */
static char * tall_xpm[] = {
"32 18 2 1",
" 	c white",
".	c None",
"                                ",
"                                ",
"  ..............  ............  ",
"  ..............  ............  ",
"  ..............  ............  ",
"  ..............  ............  ",
"  ..............  ............  ",
"  ..............  ............  ",
"  ..............                ",
"  ..............                ",
"  ..............  ............  ",
"  ..............  ............  ",
"  ..............  ............  ",
"  ..............  ............  ",
"  ..............  ............  ",
"  ..............  ............  ",
"                                ",
"                                "};
