#define ac_idle_width 16
#define ac_idle_height 16
static char ac_idle_bits[] = {
  0x00, 0x00,  
  0x40, 0x02, 
  0x40, 0x02, 
  0x40, 0x02, 
  0x40, 0x02, 
  0xF0, 0x0F, 
  0xF0, 0x0F, 
  0xF0, 0x0F, 
  0xF0, 0x0F, 
  0xF0, 0x0F, 
  0xE0, 0x07,
  0x80, 0x01,
  0x80, 0x01,
  0x80, 0x01,
  0x80, 0x01,
  0x00, 0x00,
};
