/* XPM */
static char * ac_xpm[] = {
"16 16 2 1",
" 	c None",
".	c green",
"                ",
"      .  .      ",
"      .  .      ",
"      .  .      ",
"      .  .      ",
"    ........    ",
"    ........    ",
"    ........    ",
"    ........    ",
"    ........    ",
"     ......     ",
"       ..       ",
"       ..       ",
"       ..       ",
"       ..       ",
"                "};
