#define charging_battery_width 16
#define charging_battery_height 16
static unsigned char charging_battery_bits[] = {
   0x00, 0x00, 0xc0, 0x03, 0xf0, 0x0f, 0x10, 0x08, 0x10, 0x0b, 0x90, 0x0b,
   0x90, 0x09, 0xd0, 0x08, 0xd0, 0x0b, 0x10, 0x0b, 0x90, 0x09, 0xd0, 0x08,
   0x50, 0x08, 0x10, 0x08, 0xf0, 0x0f, 0x00, 0x00};
