/* XPM */
static char * cpu_xpm[] = {
"16 16 2 1 XPMEXT",
" 	c None",
".	c white",
"  . . . . . .   ",
" .............  ",
"............... ",
" ..         ..  ",
"... ....... ... ",
" .. ..   .. ..  ",
"... .     . ... ",
" .. .     . ..  ",
"... .     . ... ",
" .. ..   .. ..  ",
"... ....... ... ",
" ..         ..  ",
"............... ",
" .............  ",
"  . . . . . .   ",
"                ",
"XPMEXT xbm",
"",
"XPMENDEXT"};
