#define battery_width 16
#define battery_height 16
static unsigned char battery_bits[] = {
   0x54, 0x15, 0xfe, 0x3f, 0x03, 0x60, 0xfa, 0x2f, 0xfb, 0x6f, 0xfa, 0x2f,
   0xfb, 0x6f, 0xfa, 0x2f, 0xfb, 0x6f, 0xfa, 0x2f, 0xfb, 0x6f, 0xfa, 0x2f,
   0x03, 0x60, 0xfe, 0x3f, 0x54, 0x15, 0x00, 0x00};
