#define cpu_width 16
#define cpu_height 16
static char cpu_bits[] = {
  0x54, 0x15, 0xFE, 0x3F, 0xFF, 0x7F, 0x06, 0x30, 0xF7, 0x77, 0x36, 0x36, 
  0x17, 0x74, 0x16, 0x34, 0x17, 0x74, 0x36, 0x36, 0xF7, 0x77, 0x06, 0x30, 
  0xFF, 0x7F, 0xFE, 0x3F, 0x54, 0x15, 0x00, 0x00, };
