#define 4de573f31ad74081a844a7717ecc328aShEicGrK00jWkwft_width 16
#define 4de573f31ad74081a844a7717ecc328aShEicGrK00jWkwft_height 16
static char 4de573f31ad74081a844a7717ecc328aShEicGrK00jWkwft_bits[] = {
  0x00, 0x00, 0x00, 0x3F, 0x00, 0x1F, 0x80, 0x0F, 0x80, 0x07, 0xC0, 0x07, 
  0xC0, 0x03, 0xE0, 0x1F, 0x00, 0x0E, 0x00, 0x07, 0x00, 0x03, 0x80, 0x03, 
  0x80, 0x01, 0xC0, 0x00, 0x40, 0x00, 0x00, 0x00, };
