#define b20811b6b7b24af286a0b252d8673306in1KgnyBcfFpd69e_width 16
#define b20811b6b7b24af286a0b252d8673306in1KgnyBcfFpd69e_height 16
static char b20811b6b7b24af286a0b252d8673306in1KgnyBcfFpd69e_bits[] = {
  0x00, 0x00, 0x00, 0x00, 0x20, 0x00, 0x30, 0x00, 0x38, 0x41, 0x3C, 0x63, 
  0x3F, 0x36, 0x3F, 0x1C, 0x3F, 0x1C, 0x3F, 0x36, 0x3C, 0x63, 0x38, 0x41, 
  0x30, 0x00, 0x20, 0x00, 0x00, 0x00, 0x00, 0x00, };
