/* XPM */
static char * wifi_xpm[] = {
/* columns rows colors chars-per-pixel */
"16 16 3 1",
" 	c None",
".	c white",
"X	c black",
/* pixels */
"                ",
"                ",
"     ......     ",
"  ............  ",
" ...        ... ",
"..            ..",
"     ......     ",
"   ....  ....   ",
"   ..      ..   ",
"      ....      ",
"     ......     ",
"                ",
"                ",
"       ..       ",
"       ..       ",
"                "};
