#define combo_width 16
#define combo_height 11
static unsigned char combo_bits[] = {
   0xff, 0xff, 0x81, 0x88, 0x81, 0xf8, 0x81, 0x80, 0x81, 0x80, 0x81, 0x80,
   0x81, 0x80, 0x81, 0x80, 0x81, 0x80, 0x81, 0x80, 0xff, 0xff};
