/* XPM */
static char * full_xpm[] = {
"16 11 2 1",
" 	c white",
".	c None",
"                ",
"                ",
"  ............  ",
"  ............  ",
"  ............  ",
"  ............  ",
"  ............  ",
"  ............  ",
"  ............  ",
"                ",
"                "};
