/* XPM */
static char * full_xpm[] = {
"24 15 2 1",
" 	c white",
".	c None",
"                        ",
"                        ",
"  ....................  ",
"  ....................  ",
"  ....................  ",
"  ....................  ",
"  ....................  ",
"  ....................  ",
"  ....................  ",
"  ....................  ",
"  ....................  ",
"  ....................  ",
"  ....................  ",
"                        ",
"                        "};
