#define full-l_width 24
#define full-l_height 15
static char full-l_bits[] = {
  0x00, 0x00, 0x00, 0x00, 0x00, 0x00, 0xFC, 0xFF, 0x3F, 0xFC, 0xFF, 0x3F, 
  0xFC, 0xFF, 0x3F, 0xFC, 0xFF, 0x3F, 0xFC, 0xFF, 0x3F, 0xFC, 0xFF, 0x3F, 
  0xFC, 0xFF, 0x3F, 0xFC, 0xFF, 0x3F, 0xFC, 0xFF, 0x3F, 0xFC, 0xFF, 0x3F, 
  0xFC, 0xFF, 0x3F, 0x00, 0x00, 0x00, 0x00, 0x00, 0x00, };
