#define full_width 16
#define full_height 11
static char full_bits[] = {
  0x00, 0x00, 0x00, 0x00, 0xFC, 0x3F, 0xFC, 0x3F, 0xFC, 0x3F, 0xFC, 0x3F, 
  0xFC, 0x3F, 0xFC, 0x3F, 0xFC, 0x3F, 0x00, 0x00, 0x00, 0x00, };
