/* XPM */
static char * full_xpm[] = {
"16 10 2 1",
" 	c white",
".	c None",
"                ",
"                ",
"  ............  ",
"  ............  ",
"  ............  ",
"  ............  ",
"  ............  ",
"  ............  ",
"                ",
"                "};
