#define tabbed_width 16
#define tabbed_height 11
static unsigned char tabbed_bits[] = {
   0xff, 0xff, 0x21, 0x84, 0x21, 0x84, 0x21, 0x84, 0xe1, 0xff, 0x01, 0x80,
   0x01, 0x80, 0x01, 0x80, 0x01, 0x80, 0x01, 0x80, 0xff, 0xff};
