#define tabbed_width 16
#define tabbed_height 11
static char tabbed_bits[] = {
  0x00, 0x00, 0x00, 0x00, 0x7C, 0x3E, 0x7C, 0x3E, 0x00, 0x00, 0xFC, 0x3F, 
  0xFC, 0x3F, 0xFC, 0x3F, 0xFC, 0x3F, 0x00, 0x00, 0x00, 0x00, };
