#define tall-l_width 24
#define tall-l_height 15
static char tall-l_bits[] = {
  0x00, 0x00, 0x00, 0x00, 0x00, 0x00, 0xFC, 0xCF, 0x3F, 0xFC, 0xCF, 0x3F, 
  0xFC, 0xCF, 0x3F, 0xFC, 0xCF, 0x3F, 0xFC, 0xCF, 0x3F, 0xFC, 0x0F, 0x00, 
  0xFC, 0x0F, 0x00, 0xFC, 0xCF, 0x3F, 0xFC, 0xCF, 0x3F, 0xFC, 0xCF, 0x3F, 
  0xFC, 0xCF, 0x3F, 0x00, 0x00, 0x00, 0x00, 0x00, 0x00, };
