/* XPM */
static char * tall_xpm[] = {
"16 11 2 1",
" 	c white",
".	c None",
"                ",
" ....... ...... ",
" ....... ...... ",
" ....... ...... ",
" ....... ...... ",
" .......        ",
" ....... ...... ",
" ....... ...... ",
" ....... ...... ",
" ....... ...... ",
"                "};
