#define tall_width 16
#define tall_height 11
static char tall_bits[] = {
  0x00, 0x00, 0x00, 0x00, 0xFC, 0x3C, 0xFC, 0x3C, 0xFC, 0x3C, 0xFC, 0x00, 
  0xFC, 0x3C, 0xFC, 0x3C, 0xFC, 0x3C, 0x00, 0x00, 0x00, 0x00, };
