#define tall_width 16
#define tall_height 11
static unsigned char tall_bits[] = {
   0xff, 0xff, 0x01, 0x81, 0x01, 0x81, 0x01, 0x81, 0x01, 0x81, 0x01, 0xff,
   0x01, 0x81, 0x01, 0x81, 0x01, 0x81, 0x01, 0x81, 0xff, 0xff};
