#define twopane.xbmtwopane.xbmtabbed.xbm_width 16
#define twopane.xbmtwopane.xbmtabbed.xbm_height 11
static unsigned char twopane.xbmtwopane.xbmtabbed.xbm_bits[] = {
   0xff, 0xff, 0x01, 0x81, 0x01, 0x81, 0x01, 0x81, 0x01, 0x81, 0x01, 0x81,
   0x01, 0x81, 0x01, 0x81, 0x01, 0x81, 0x01, 0x81, 0xff, 0xff};
