#define no_ac_width 16
#define no_ac_height 16
static unsigned char no_ac_bits[] = {
   0x00, 0x00, 0x46, 0x02, 0x4e, 0x02, 0x5c, 0x02, 0x78, 0x02, 0xf0, 0x0f,
   0xf0, 0x0f, 0xf0, 0x0f, 0xf0, 0x0f, 0xf0, 0x0f, 0xe0, 0x1f, 0x80, 0x39,
   0x80, 0x71, 0x80, 0x61, 0x80, 0x01, 0x00, 0x00};
