#define ram_width 16
#define ram_height 16
static unsigned char ram_bits[] = {
   0x54, 0x15, 0xfe, 0x3f, 0x93, 0x64, 0x92, 0x24, 0xff, 0x7f, 0x92, 0x24,
   0x93, 0x64, 0xfe, 0x3f, 0x93, 0x64, 0x92, 0x24, 0xff, 0x7f, 0x92, 0x24,
   0x93, 0x64, 0xfe, 0x3f, 0x54, 0x15, 0x00, 0x00};
