#define restart_width 16
#define restart_height 16
static unsigned char restart_bits[] = {
   0x00, 0x00, 0xf8, 0x0f, 0xfc, 0x1f, 0x0e, 0x38, 0x06, 0x30, 0x06, 0xfc,
   0x06, 0x78, 0x06, 0x30, 0x06, 0x00, 0x06, 0x30, 0x06, 0x30, 0x06, 0x30,
   0x0e, 0x38, 0xfc, 0x1f, 0xf8, 0x0f, 0x00, 0x00};
