#define soundxbmram.xbm_width 16
#define soundxbmram.xbm_height 16
static unsigned char soundxbmram.xbm_bits[] = {
   0x00, 0x00, 0x00, 0x00, 0x20, 0x18, 0x30, 0x30, 0x38, 0x62, 0xbc, 0x64,
   0x3f, 0xcd, 0x3f, 0xcd, 0x3f, 0xcd, 0x3f, 0xcd, 0xbc, 0x64, 0x38, 0x62,
   0x30, 0x30, 0x20, 0x18, 0x00, 0x00, 0x00, 0x00};
