#define up_arrow_width 12
#define up_arrow_height 16
static unsigned char up_arrow_bits[] = {
   0x00, 0x00, 0x00, 0x00, 0x00, 0x00, 0x00, 0x00, 0x60, 0x00, 0x90, 0x00,
   0x08, 0x01, 0x04, 0x02, 0x0e, 0x07, 0x08, 0x01, 0x08, 0x01, 0xf8, 0x01,
   0x00, 0x00, 0x00, 0x00, 0x00, 0x00, 0x00, 0x00};
