#define wifi.xbmsoundxbmram.xbm_width 16
#define wifi.xbmsoundxbmram.xbm_height 16
static unsigned char wifi.xbmsoundxbmram.xbm_bits[] = {
   0x00, 0x00, 0x00, 0x00, 0xf0, 0x0f, 0xfc, 0x3f, 0x0e, 0x70, 0x03, 0xc0,
   0xc0, 0x03, 0xf0, 0x0f, 0x38, 0x1c, 0x0c, 0x30, 0xc0, 0x03, 0xe0, 0x07,
   0x00, 0x00, 0x80, 0x01, 0x80, 0x01, 0x00, 0x00};
